<svg width="40" height="40" viewBox="0 0 40 40" fill="none" xmlns="http://www.w3.org/2000/svg">
<circle cx="20" cy="20" r="20" fill="#D9D9D9"/>
<path fill-rule="evenodd" clip-rule="evenodd" d="M23.7 14.9112C22.7522 14.025 21.4875 13.5422 20.1789 13.562C17.7842 13.562 15.7505 15.146 15.0253 17.2788L15.0253 17.2788C14.6409 18.3965 14.6409 19.6067 15.0253 20.7244L15.0237 20.7256H15.0286C15.7571 22.8551 17.7875 24.4391 20.1821 24.4391C21.4182 24.4391 22.4794 24.1291 23.3019 23.5816V23.578C24.2698 22.9497 24.9309 21.961 25.1366 20.8433H20.1787V17.3778H28.8365C28.9444 17.9796 28.995 18.5947 28.995 19.2064C28.995 21.944 27.997 24.2585 26.2605 25.8259L26.2632 25.8279C24.7421 27.2036 22.6544 28.0005 20.1788 28.0005C16.7082 28.0005 13.5345 26.0826 11.9763 23.0436V23.0423C10.6745 20.4994 10.6746 17.5035 11.9764 14.9607H11.9765C13.5347 11.9185 16.7084 10.0006 20.1789 10.0006C22.4588 9.97415 24.6612 10.8141 26.3206 12.3418L23.7 14.9112Z" fill="#2E84B6"/>
</svg>
